<?xml version="1.0" encoding="UTF-8"?>
<svg xmlns="http://www.w3.org/2000/svg" xmlns:xlink="http://www.w3.org/1999/xlink" width="42.5pt" height="42.7pt" viewBox="0 0 42.5 42.7" version="1.1">
<defs>
<clipPath id="clip1">
  <path d="M 0 0 L 42.5 0 L 42.5 42.699219 L 0 42.699219 Z M 0 0 "/>
</clipPath>
</defs>
<g id="surface1">
<path style=" stroke:none;fill-rule:evenodd;fill:rgb(0%,38.426208%,63.867188%);fill-opacity:1;" d="M 34.867188 35.164063 C 35.140625 35.164063 35.363281 35.386719 35.363281 35.660156 C 35.363281 35.933594 35.140625 36.15625 34.867188 36.15625 C 34.589844 36.15625 34.371094 35.933594 34.371094 35.660156 C 34.371094 35.386719 34.589844 35.164063 34.867188 35.164063 Z M 34.867188 35.164063 "/>
<path style=" stroke:none;fill-rule:evenodd;fill:rgb(0%,38.426208%,63.867188%);fill-opacity:1;" d="M 7.722656 35.164063 C 7.996094 35.164063 8.21875 35.386719 8.21875 35.660156 C 8.21875 35.933594 7.996094 36.15625 7.722656 36.15625 C 7.449219 36.15625 7.226563 35.933594 7.226563 35.660156 C 7.226563 35.386719 7.449219 35.164063 7.722656 35.164063 Z M 7.722656 35.164063 "/>
<path style=" stroke:none;fill-rule:evenodd;fill:rgb(0%,38.426208%,63.867188%);fill-opacity:1;" d="M 17.777344 36.210938 L 18 36.492188 L 18.242188 36.730469 L 18.5 36.941406 L 18.769531 37.121094 L 19.050781 37.273438 L 19.339844 37.40625 L 19.632813 37.515625 L 19.9375 37.601563 L 20.25 37.671875 L 20.566406 37.722656 L 20.894531 37.753906 L 21.222656 37.761719 L 21.554688 37.753906 L 21.882813 37.722656 L 22.199219 37.671875 L 22.511719 37.601563 L 22.816406 37.515625 L 23.109375 37.40625 L 23.398438 37.273438 L 23.679688 37.121094 L 23.949219 36.941406 L 24.207031 36.730469 L 24.449219 36.492188 L 24.671875 36.210938 L 24.867188 35.886719 L 25.023438 35.523438 L 25.125 35.125 L 25.15625 34.734375 L 25.144531 34.457031 L 25.109375 34.21875 L 25.050781 33.988281 L 24.976563 33.769531 L 26.3125 33.769531 L 28.488281 36.085938 L 28.511719 36.074219 L 28.617188 36.019531 L 28.722656 35.96875 L 28.828125 35.914063 L 28.933594 35.855469 L 29.039063 35.800781 L 29.140625 35.742188 L 29.246094 35.6875 L 29.449219 35.570313 L 29.550781 35.507813 L 29.652344 35.449219 L 29.753906 35.386719 L 29.855469 35.328125 L 29.925781 35.285156 L 27.003906 32.175781 L 22.722656 32.175781 L 22.722656 33.578125 L 22.75 33.589844 L 22.84375 33.644531 L 22.933594 33.699219 L 23.097656 33.824219 L 23.171875 33.890625 L 23.304688 34.03125 L 23.359375 34.105469 L 23.410156 34.183594 L 23.453125 34.265625 L 23.492188 34.347656 L 23.519531 34.433594 L 23.542969 34.523438 L 23.554688 34.613281 L 23.558594 34.703125 L 23.546875 34.859375 L 23.507813 35.011719 L 23.445313 35.160156 L 23.363281 35.296875 L 23.261719 35.425781 L 23.140625 35.546875 L 23.003906 35.65625 L 22.851563 35.757813 L 22.683594 35.847656 L 22.503906 35.929688 L 22.316406 36 L 22.113281 36.058594 L 21.902344 36.105469 L 21.683594 36.140625 L 21.457031 36.160156 L 21.222656 36.167969 L 20.992188 36.160156 L 20.765625 36.140625 L 20.546875 36.105469 L 20.335938 36.058594 L 20.132813 36 L 19.945313 35.929688 L 19.765625 35.847656 L 19.597656 35.757813 L 19.445313 35.65625 L 19.308594 35.546875 L 19.1875 35.425781 L 19.085938 35.296875 L 19.003906 35.160156 L 18.941406 35.011719 L 18.902344 34.859375 L 18.890625 34.703125 L 18.894531 34.613281 L 18.90625 34.523438 L 18.929688 34.433594 L 18.957031 34.347656 L 18.992188 34.265625 L 19.039063 34.183594 L 19.089844 34.105469 L 19.144531 34.03125 L 19.207031 33.957031 L 19.277344 33.890625 L 19.351563 33.824219 L 19.515625 33.699219 L 19.605469 33.644531 L 19.699219 33.589844 L 19.726563 33.578125 L 19.726563 32.175781 L 15.722656 32.175781 L 12.6875 35.40625 L 12.753906 35.449219 L 12.855469 35.507813 L 12.957031 35.570313 L 13.0625 35.628906 L 13.164063 35.6875 L 13.269531 35.746094 L 13.371094 35.800781 L 13.476563 35.859375 L 13.792969 36.023438 L 13.902344 36.074219 L 14.007813 36.128906 L 14.113281 36.179688 L 14.136719 36.191406 L 16.414063 33.769531 L 17.46875 33.769531 L 17.394531 33.988281 L 17.339844 34.21875 L 17.304688 34.457031 L 17.292969 34.734375 L 17.324219 35.125 L 17.425781 35.523438 L 17.582031 35.886719 Z M 28.921875 27.867188 L 33.546875 32.222656 L 33.609375 32.148438 L 33.6875 32.0625 L 33.761719 31.976563 L 33.835938 31.886719 L 33.910156 31.800781 L 33.984375 31.710938 L 34.054688 31.621094 L 34.128906 31.53125 L 34.269531 31.351563 L 34.339844 31.257813 L 34.410156 31.167969 L 34.480469 31.074219 L 34.546875 30.980469 L 30.515625 27.179688 L 30.515625 22.90625 L 22.722656 22.90625 L 22.722656 30.421875 L 27.273438 30.421875 L 31.097656 34.476563 L 31.191406 34.410156 L 31.28125 34.339844 L 31.371094 34.265625 L 31.550781 34.125 L 31.820313 33.902344 L 31.992188 33.753906 L 32.082031 33.679688 L 32.167969 33.601563 L 32.253906 33.527344 L 32.328125 33.457031 L 27.964844 28.828125 L 24.316406 28.828125 L 24.316406 24.5 L 28.921875 24.5 Z M 34.3125 25.292969 L 34.550781 25.328125 L 34.828125 25.339844 L 35.21875 25.308594 L 35.617188 25.207031 L 35.980469 25.050781 L 36.304688 24.855469 L 36.585938 24.632813 L 36.828125 24.390625 L 37.035156 24.132813 L 37.214844 23.863281 L 37.371094 23.582031 L 37.5 23.292969 L 37.609375 23 L 37.640625 22.894531 L 37.648438 22.804688 L 37.6875 22.296875 L 37.691406 22.195313 L 37.699219 22.09375 L 37.703125 21.992188 L 37.707031 21.886719 L 37.714844 21.683594 L 37.714844 21.578125 L 37.71875 21.476563 L 37.71875 21.035156 L 37.714844 20.957031 L 37.714844 20.878906 L 37.710938 20.800781 L 37.710938 20.722656 L 37.691406 20.332031 L 37.6875 20.257813 L 37.679688 20.101563 L 37.671875 20.039063 L 37.609375 19.816406 L 37.5 19.519531 L 37.371094 19.234375 L 37.214844 18.953125 L 37.035156 18.683594 L 36.828125 18.425781 L 36.585938 18.183594 L 36.304688 17.960938 L 35.980469 17.765625 L 35.617188 17.609375 L 35.21875 17.507813 L 34.828125 17.476563 L 34.554688 17.488281 L 34.3125 17.523438 L 34.082031 17.578125 L 33.863281 17.65625 L 33.863281 16.320313 L 36.121094 14.195313 L 36.109375 14.171875 L 36.007813 13.960938 L 35.953125 13.851563 L 35.734375 13.429688 L 35.675781 13.328125 L 35.617188 13.222656 L 35.558594 13.121094 L 35.5 13.015625 L 35.441406 12.914063 L 35.378906 12.8125 L 35.339844 12.746094 L 32.269531 15.628906 L 32.269531 19.910156 L 33.671875 19.910156 L 33.683594 19.882813 L 33.738281 19.789063 L 33.796875 19.699219 L 33.855469 19.617188 L 33.917969 19.535156 L 33.984375 19.460938 L 34.125 19.328125 L 34.203125 19.273438 L 34.277344 19.222656 L 34.359375 19.179688 L 34.441406 19.140625 L 34.527344 19.113281 L 34.617188 19.089844 L 34.707031 19.078125 L 34.800781 19.074219 L 34.957031 19.085938 L 35.109375 19.125 L 35.253906 19.1875 L 35.390625 19.269531 L 35.519531 19.375 L 35.640625 19.492188 L 35.75 19.628906 L 35.851563 19.78125 L 35.945313 19.949219 L 36.023438 20.128906 L 36.09375 20.316406 L 36.152344 20.519531 L 36.199219 20.730469 L 36.234375 20.949219 L 36.257813 21.175781 L 36.261719 21.40625 L 36.257813 21.640625 L 36.234375 21.867188 L 36.199219 22.085938 L 36.152344 22.296875 L 36.09375 22.5 L 36.023438 22.6875 L 35.945313 22.867188 L 35.851563 23.035156 L 35.75 23.1875 L 35.640625 23.324219 L 35.519531 23.445313 L 35.390625 23.546875 L 35.253906 23.628906 L 35.109375 23.691406 L 34.953125 23.730469 L 34.800781 23.742188 L 34.707031 23.738281 L 34.617188 23.726563 L 34.527344 23.703125 L 34.441406 23.675781 L 34.359375 23.640625 L 34.277344 23.59375 L 34.203125 23.542969 L 34.125 23.488281 L 34.054688 23.425781 L 33.984375 23.355469 L 33.917969 23.28125 L 33.855469 23.199219 L 33.796875 23.117188 L 33.738281 23.027344 L 33.683594 22.933594 L 33.671875 22.90625 L 32.269531 22.90625 L 32.269531 26.910156 L 35.339844 29.792969 L 35.378906 29.726563 L 35.441406 29.625 L 35.5 29.519531 L 35.558594 29.417969 L 35.617188 29.3125 L 35.675781 29.210938 L 35.734375 29.105469 L 35.789063 29 L 35.84375 28.898438 L 35.898438 28.792969 L 35.953125 28.683594 L 36.007813 28.578125 L 36.058594 28.472656 L 36.109375 28.363281 L 36.121094 28.339844 L 33.863281 26.21875 L 33.863281 25.160156 L 34.082031 25.238281 Z M 32.328125 9.078125 L 32.253906 9.011719 L 32.167969 8.933594 L 32.082031 8.859375 L 31.992188 8.785156 L 31.90625 8.707031 L 31.820313 8.632813 L 31.730469 8.558594 L 31.640625 8.488281 L 31.550781 8.414063 L 31.460938 8.34375 L 31.371094 8.269531 L 31.191406 8.128906 L 31.097656 8.058594 L 27.273438 12.117188 L 22.722656 12.117188 L 22.722656 19.910156 L 30.515625 19.910156 L 30.515625 15.359375 L 34.546875 11.558594 L 34.546875 11.554688 L 34.480469 11.464844 L 34.339844 11.277344 L 34.128906 11.007813 L 34.054688 10.917969 L 33.984375 10.828125 L 33.835938 10.648438 L 33.6875 10.476563 L 33.609375 10.386719 L 33.546875 10.3125 L 28.921875 14.667969 L 28.921875 18.316406 L 24.316406 18.316406 L 24.316406 13.710938 L 27.964844 13.710938 Z M 25.109375 8.320313 L 25.144531 8.082031 L 25.15625 7.804688 L 25.125 7.414063 L 25.023438 7.011719 L 24.867188 6.652344 L 24.671875 6.328125 L 24.449219 6.046875 L 24.207031 5.804688 L 23.949219 5.597656 L 23.679688 5.417969 L 23.398438 5.261719 L 23.109375 5.132813 L 22.816406 5.023438 L 22.511719 4.933594 L 22.199219 4.867188 L 21.882813 4.816406 L 21.554688 4.785156 L 21.222656 4.773438 L 20.894531 4.785156 L 20.566406 4.816406 L 20.25 4.867188 L 19.9375 4.933594 L 19.632813 5.023438 L 19.339844 5.132813 L 19.050781 5.261719 L 18.769531 5.417969 L 18.5 5.597656 L 18.242188 5.804688 L 18 6.046875 L 17.777344 6.328125 L 17.582031 6.652344 L 17.425781 7.011719 L 17.324219 7.414063 L 17.292969 7.804688 L 17.304688 8.082031 L 17.339844 8.320313 L 17.394531 8.550781 L 17.46875 8.769531 L 16.414063 8.769531 L 14.136719 6.347656 L 14.117188 6.359375 L 14.007813 6.410156 L 13.902344 6.460938 L 13.792969 6.515625 L 13.476563 6.679688 L 13.371094 6.738281 L 13.269531 6.792969 L 13.164063 6.851563 L 13.0625 6.910156 L 12.957031 6.96875 L 12.855469 7.027344 L 12.753906 7.089844 L 12.6875 7.128906 L 15.722656 10.363281 L 19.726563 10.363281 L 19.726563 8.960938 L 19.699219 8.949219 L 19.605469 8.894531 L 19.515625 8.835938 L 19.433594 8.777344 L 19.351563 8.714844 L 19.277344 8.648438 L 19.207031 8.578125 L 19.144531 8.507813 L 19.089844 8.433594 L 19.039063 8.355469 L 18.992188 8.273438 L 18.957031 8.191406 L 18.929688 8.105469 L 18.90625 8.015625 L 18.894531 7.925781 L 18.890625 7.832031 L 18.902344 7.675781 L 18.941406 7.523438 L 19.003906 7.378906 L 19.085938 7.242188 L 19.1875 7.113281 L 19.308594 6.992188 L 19.445313 6.882813 L 19.597656 6.78125 L 19.765625 6.6875 L 19.945313 6.609375 L 20.132813 6.539063 L 20.335938 6.480469 L 20.546875 6.433594 L 20.765625 6.398438 L 20.992188 6.375 L 21.222656 6.371094 L 21.457031 6.375 L 21.683594 6.398438 L 21.902344 6.433594 L 22.113281 6.480469 L 22.316406 6.539063 L 22.503906 6.609375 L 22.683594 6.6875 L 22.851563 6.78125 L 23.003906 6.882813 L 23.140625 6.992188 L 23.261719 7.113281 L 23.363281 7.242188 L 23.445313 7.378906 L 23.507813 7.523438 L 23.546875 7.675781 L 23.558594 7.832031 L 23.554688 7.925781 L 23.542969 8.015625 L 23.519531 8.105469 L 23.492188 8.191406 L 23.453125 8.273438 L 23.410156 8.355469 L 23.359375 8.429688 L 23.304688 8.507813 L 23.171875 8.648438 L 23.097656 8.714844 L 23.015625 8.777344 L 22.933594 8.835938 L 22.84375 8.894531 L 22.75 8.949219 L 22.722656 8.960938 L 22.722656 10.363281 L 27.003906 10.363281 L 29.925781 7.253906 L 29.855469 7.210938 L 29.753906 7.148438 L 29.652344 7.089844 L 29.550781 7.027344 L 29.246094 6.851563 L 29.140625 6.792969 L 29.039063 6.738281 L 28.933594 6.679688 L 28.617188 6.515625 L 28.511719 6.464844 L 28.488281 6.453125 L 26.3125 8.769531 L 24.976563 8.769531 L 25.050781 8.550781 Z M 8.941406 10.226563 L 8.867188 10.3125 L 8.789063 10.398438 L 8.640625 10.570313 L 8.566406 10.660156 L 8.492188 10.746094 L 8.34375 10.925781 L 8.132813 11.195313 L 8.0625 11.289063 L 7.992188 11.378906 L 12.210938 15.359375 L 12.210938 19.910156 L 19.726563 19.910156 L 19.726563 12.117188 L 15.453125 12.117188 L 11.5 7.921875 L 11.402344 7.988281 L 11.3125 8.058594 L 11.21875 8.128906 L 11.128906 8.199219 L 11.035156 8.269531 L 10.945313 8.339844 L 10.855469 8.414063 L 10.765625 8.484375 L 10.679688 8.558594 L 10.589844 8.632813 L 10.503906 8.707031 L 10.414063 8.78125 L 10.328125 8.859375 L 10.253906 8.921875 L 14.765625 13.710938 L 18.132813 13.710938 L 18.132813 18.316406 L 13.804688 18.316406 L 13.804688 14.667969 L 9.011719 10.152344 Z M 8.414063 17.523438 L 8.171875 17.488281 L 7.898438 17.476563 L 7.507813 17.507813 L 7.109375 17.609375 L 6.746094 17.765625 L 6.421875 17.960938 L 6.144531 18.183594 L 5.902344 18.425781 L 5.691406 18.683594 L 5.511719 18.953125 L 5.359375 19.234375 L 5.226563 19.519531 L 5.117188 19.816406 L 5.03125 20.121094 L 4.960938 20.433594 L 4.910156 20.75 L 4.878906 21.078125 L 4.871094 21.40625 L 4.878906 21.738281 L 4.910156 22.066406 L 4.960938 22.382813 L 5.03125 22.695313 L 5.117188 23 L 5.226563 23.292969 L 5.359375 23.582031 L 5.511719 23.863281 L 5.691406 24.132813 L 5.898438 24.390625 L 6.140625 24.632813 L 6.421875 24.855469 L 6.746094 25.050781 L 7.109375 25.207031 L 7.507813 25.308594 L 7.898438 25.339844 L 8.175781 25.328125 L 8.414063 25.292969 L 8.644531 25.238281 L 8.863281 25.160156 L 8.863281 26.21875 L 6.386719 28.546875 L 6.394531 28.570313 L 6.667969 29.097656 L 6.726563 29.199219 L 6.78125 29.304688 L 6.898438 29.507813 L 6.960938 29.613281 L 7.019531 29.714844 L 7.082031 29.816406 L 7.144531 29.914063 L 7.183594 29.984375 L 10.457031 26.910156 L 10.457031 22.90625 L 9.054688 22.90625 L 9.042969 22.933594 L 8.988281 23.027344 L 8.933594 23.117188 L 8.808594 23.28125 L 8.742188 23.355469 L 8.675781 23.425781 L 8.601563 23.488281 L 8.527344 23.542969 L 8.449219 23.59375 L 8.367188 23.640625 L 8.285156 23.675781 L 8.199219 23.703125 L 8.109375 23.726563 L 8.019531 23.738281 L 7.929688 23.742188 L 7.773438 23.730469 L 7.621094 23.691406 L 7.472656 23.628906 L 7.335938 23.546875 L 7.207031 23.445313 L 7.085938 23.324219 L 6.976563 23.1875 L 6.875 23.035156 L 6.785156 22.867188 L 6.703125 22.6875 L 6.632813 22.5 L 6.574219 22.296875 L 6.527344 22.085938 L 6.492188 21.867188 L 6.472656 21.640625 L 6.464844 21.40625 L 6.472656 21.175781 L 6.492188 20.949219 L 6.527344 20.730469 L 6.574219 20.519531 L 6.632813 20.316406 L 6.703125 20.128906 L 6.785156 19.949219 L 6.875 19.78125 L 6.976563 19.628906 L 7.085938 19.492188 L 7.207031 19.375 L 7.335938 19.269531 L 7.472656 19.1875 L 7.621094 19.125 L 7.773438 19.085938 L 7.929688 19.074219 L 8.019531 19.078125 L 8.109375 19.089844 L 8.199219 19.113281 L 8.285156 19.140625 L 8.367188 19.179688 L 8.449219 19.222656 L 8.527344 19.273438 L 8.601563 19.328125 L 8.675781 19.394531 L 8.742188 19.460938 L 8.808594 19.535156 L 8.933594 19.699219 L 8.988281 19.789063 L 9.042969 19.882813 L 9.054688 19.910156 L 10.457031 19.910156 L 10.457031 15.628906 L 7.183594 12.554688 L 7.144531 12.621094 L 7.019531 12.824219 L 6.960938 12.925781 L 6.898438 13.027344 L 6.839844 13.132813 L 6.78125 13.234375 L 6.726563 13.335938 L 6.667969 13.441406 L 6.394531 13.96875 L 6.386719 13.988281 L 8.863281 16.320313 L 8.863281 17.65625 L 8.644531 17.578125 Z M 10.253906 33.613281 L 10.328125 33.679688 L 10.414063 33.753906 L 10.5 33.832031 L 10.679688 33.980469 L 10.765625 34.050781 L 10.855469 34.125 L 10.945313 34.195313 L 11.035156 34.269531 L 11.128906 34.339844 L 11.21875 34.410156 L 11.3125 34.480469 L 11.402344 34.546875 L 11.5 34.617188 L 15.453125 30.421875 L 19.726563 30.421875 L 19.726563 22.90625 L 12.210938 22.90625 L 12.210938 27.179688 L 7.992188 31.15625 L 8.058594 31.25 L 8.128906 31.339844 L 8.203125 31.433594 L 8.34375 31.613281 L 8.417969 31.703125 L 8.492188 31.789063 L 8.566406 31.878906 L 8.640625 31.964844 L 8.714844 32.054688 L 8.789063 32.140625 L 8.867188 32.226563 L 8.941406 32.3125 L 9.007813 32.386719 L 13.804688 27.867188 L 13.804688 24.5 L 18.132813 24.5 L 18.132813 28.828125 L 14.765625 28.828125 Z M 10.253906 33.613281 "/>
<g clip-path="url(#clip1)" clip-rule="nonzero">
<path style=" stroke:none;fill-rule:evenodd;fill:rgb(0%,38.426208%,63.867188%);fill-opacity:1;" d="M 18.070313 41.839844 L 18.398438 41.902344 L 18.300781 42.410156 L 17.09375 42.175781 L 17.191406 41.667969 L 17.519531 41.730469 L 17.902344 39.761719 L 17.414063 39.667969 L 17.503906 39.199219 L 18.542969 39.402344 Z M 20.753906 40.671875 L 20.757813 40.613281 L 20.753906 40.554688 L 20.746094 40.503906 L 20.734375 40.449219 L 20.71875 40.398438 L 20.695313 40.351563 L 20.667969 40.304688 L 20.636719 40.261719 L 20.601563 40.21875 L 20.5625 40.183594 L 20.523438 40.152344 L 20.480469 40.125 L 20.4375 40.105469 L 20.386719 40.085938 L 20.339844 40.074219 L 20.285156 40.066406 L 20.175781 40.066406 L 20.121094 40.074219 L 20.074219 40.085938 L 19.980469 40.125 L 19.9375 40.152344 L 19.898438 40.183594 L 19.859375 40.222656 L 19.828125 40.257813 L 19.773438 40.34375 L 19.753906 40.394531 L 19.738281 40.445313 L 19.726563 40.5 L 19.71875 40.558594 L 19.714844 40.617188 L 19.71875 40.675781 L 19.722656 40.730469 L 19.734375 40.78125 L 19.75 40.828125 L 19.769531 40.875 L 19.824219 40.960938 L 19.859375 41 L 19.894531 41.03125 L 19.933594 41.0625 L 19.976563 41.085938 L 20.019531 41.105469 L 20.070313 41.121094 L 20.121094 41.132813 L 20.175781 41.140625 L 20.230469 41.144531 L 20.285156 41.140625 L 20.335938 41.132813 L 20.386719 41.121094 L 20.480469 41.082031 L 20.523438 41.054688 L 20.609375 40.984375 L 20.644531 40.945313 L 20.671875 40.90625 L 20.699219 40.863281 L 20.71875 40.820313 L 20.734375 40.773438 L 20.746094 40.722656 Z M 19.171875 40.527344 L 19.175781 40.492188 L 19.179688 40.453125 L 19.1875 40.417969 L 19.191406 40.382813 L 19.203125 40.347656 L 19.210938 40.3125 L 19.246094 40.207031 L 19.261719 40.171875 L 19.277344 40.140625 L 19.292969 40.105469 L 19.308594 40.074219 L 19.347656 40.011719 L 19.371094 39.980469 L 19.410156 39.921875 L 19.457031 39.867188 L 19.503906 39.816406 L 19.554688 39.765625 L 19.605469 39.722656 L 19.660156 39.683594 L 19.71875 39.648438 L 19.777344 39.617188 L 19.839844 39.589844 L 19.902344 39.566406 L 19.96875 39.550781 L 20.039063 39.535156 L 20.105469 39.527344 L 20.179688 39.523438 L 20.25 39.523438 L 20.324219 39.527344 L 20.378906 39.535156 L 20.429688 39.542969 L 20.53125 39.566406 L 20.582031 39.582031 L 20.675781 39.621094 L 20.769531 39.667969 L 20.8125 39.695313 L 20.851563 39.726563 L 20.894531 39.757813 L 20.933594 39.789063 L 20.96875 39.828125 L 21.007813 39.863281 L 21.039063 39.902344 L 21.074219 39.945313 L 21.105469 39.988281 L 21.132813 40.03125 L 21.160156 40.078125 L 21.207031 40.171875 L 21.226563 40.21875 L 21.242188 40.269531 L 21.257813 40.316406 L 21.28125 40.417969 L 21.285156 40.46875 L 21.292969 40.519531 L 21.292969 40.621094 L 21.289063 40.671875 L 21.273438 40.769531 L 21.246094 40.867188 L 21.207031 40.972656 L 21.152344 41.082031 L 21.085938 41.199219 L 21.007813 41.320313 L 20.917969 41.449219 L 20.8125 41.578125 L 20.796875 41.601563 L 20.789063 41.609375 L 20.78125 41.621094 L 20.773438 41.628906 L 20.769531 41.636719 L 20.761719 41.644531 L 20.757813 41.652344 L 20.035156 42.5625 L 19.414063 42.507813 L 20.105469 41.644531 L 20.042969 41.644531 L 19.945313 41.628906 L 19.851563 41.605469 L 19.761719 41.574219 L 19.679688 41.535156 L 19.597656 41.484375 L 19.523438 41.425781 L 19.453125 41.355469 L 19.386719 41.277344 L 19.328125 41.195313 L 19.277344 41.109375 L 19.238281 41.019531 L 19.207031 40.925781 L 19.183594 40.832031 L 19.171875 40.734375 L 19.164063 40.632813 Z M 22.347656 42.582031 L 21.757813 42.632813 L 22.628906 40.078125 L 21.976563 40.136719 L 22.015625 40.609375 L 21.511719 40.652344 L 21.425781 39.648438 L 23.148438 39.5 L 23.195313 40.019531 Z M 25.851563 42.109375 L 23.9375 42.480469 L 23.84375 41.992188 L 24.757813 40.683594 L 24.8125 40.597656 L 24.835938 40.558594 L 24.875 40.488281 L 24.890625 40.453125 L 24.902344 40.421875 L 24.925781 40.339844 L 24.929688 40.3125 L 24.933594 40.28125 L 24.933594 40.226563 L 24.925781 40.171875 L 24.914063 40.125 L 24.898438 40.082031 L 24.878906 40.039063 L 24.859375 40.003906 L 24.835938 39.96875 L 24.773438 39.90625 L 24.738281 39.878906 L 24.703125 39.855469 L 24.664063 39.835938 L 24.625 39.824219 L 24.582031 39.8125 L 24.539063 39.804688 L 24.496094 39.804688 L 24.449219 39.808594 L 24.398438 39.816406 L 24.351563 39.828125 L 24.304688 39.84375 L 24.261719 39.859375 L 24.191406 39.90625 L 24.164063 39.933594 L 24.136719 39.96875 L 24.113281 40 L 24.09375 40.039063 L 24.078125 40.082031 L 24.066406 40.125 L 24.058594 40.171875 L 24.054688 40.222656 L 24.054688 40.277344 L 24.070313 40.394531 L 24.089844 40.492188 L 23.570313 40.59375 L 23.554688 40.519531 L 23.539063 40.40625 L 23.53125 40.296875 L 23.53125 40.191406 L 23.539063 40.089844 L 23.5625 39.988281 L 23.589844 39.894531 L 23.628906 39.804688 L 23.675781 39.714844 L 23.734375 39.636719 L 23.796875 39.5625 L 23.867188 39.496094 L 23.945313 39.4375 L 24.03125 39.390625 L 24.121094 39.347656 L 24.21875 39.316406 L 24.324219 39.289063 L 24.421875 39.277344 L 24.519531 39.269531 L 24.613281 39.273438 L 24.707031 39.289063 L 24.796875 39.308594 L 24.886719 39.34375 L 24.972656 39.382813 L 25.054688 39.433594 L 25.132813 39.492188 L 25.203125 39.554688 L 25.265625 39.625 L 25.320313 39.699219 L 25.367188 39.78125 L 25.40625 39.867188 L 25.4375 39.957031 L 25.460938 40.050781 L 25.46875 40.105469 L 25.476563 40.214844 L 25.476563 40.269531 L 25.453125 40.433594 L 25.4375 40.484375 L 25.417969 40.539063 L 25.398438 40.597656 L 25.371094 40.652344 L 25.34375 40.710938 L 25.308594 40.769531 L 25.273438 40.832031 L 25.1875 40.957031 L 24.578125 41.808594 L 25.246094 41.679688 L 25.15625 41.222656 L 25.660156 41.125 Z M 5.667969 34.945313 L 5.878906 35.210938 L 5.472656 35.523438 L 4.71875 34.558594 L 5.125 34.246094 L 5.328125 34.503906 L 6.359375 33.699219 L 6.441406 33.632813 L 6.511719 33.570313 L 6.574219 33.511719 L 6.625 33.457031 L 6.667969 33.402344 L 6.699219 33.355469 L 6.722656 33.308594 L 6.738281 33.269531 L 6.746094 33.230469 L 6.75 33.191406 L 6.746094 33.148438 L 6.738281 33.105469 L 6.722656 33.0625 L 6.699219 33.011719 L 6.667969 32.964844 L 6.628906 32.910156 L 6.585938 32.859375 L 6.546875 32.820313 L 6.503906 32.78125 L 6.464844 32.753906 L 6.425781 32.734375 L 6.386719 32.71875 L 6.351563 32.710938 L 6.3125 32.707031 L 6.273438 32.710938 L 6.230469 32.722656 L 6.179688 32.738281 L 6.121094 32.761719 L 6.0625 32.792969 L 5.996094 32.835938 L 5.925781 32.882813 L 5.851563 32.9375 L 4.765625 33.785156 L 4.972656 34.050781 L 4.566406 34.363281 L 3.816406 33.402344 L 4.21875 33.085938 L 4.425781 33.351563 L 5.507813 32.503906 L 5.570313 32.457031 L 5.628906 32.414063 L 5.683594 32.375 L 5.734375 32.339844 L 5.78125 32.304688 L 5.824219 32.277344 L 5.867188 32.253906 L 5.90625 32.230469 L 5.976563 32.199219 L 6.015625 32.183594 L 6.085938 32.160156 L 6.15625 32.144531 L 6.195313 32.140625 L 6.253906 32.132813 L 6.308594 32.132813 L 6.367188 32.136719 L 6.421875 32.148438 L 6.480469 32.160156 L 6.535156 32.175781 L 6.644531 32.222656 L 6.699219 32.253906 L 6.753906 32.289063 L 6.804688 32.324219 L 6.855469 32.367188 L 6.902344 32.410156 L 6.996094 32.511719 L 7.042969 32.566406 L 7.089844 32.628906 L 7.167969 32.746094 L 7.199219 32.804688 L 7.226563 32.867188 L 7.253906 32.925781 L 7.292969 33.042969 L 7.304688 33.101563 L 7.3125 33.160156 L 7.316406 33.21875 L 7.316406 33.277344 L 7.3125 33.332031 L 7.304688 33.390625 L 7.292969 33.445313 L 7.273438 33.5 L 7.261719 33.535156 L 7.246094 33.570313 L 7.226563 33.605469 L 7.210938 33.636719 L 7.191406 33.671875 L 7.121094 33.765625 L 7.058594 33.835938 L 7.019531 33.875 L 6.976563 33.914063 L 6.875 34 L 6.816406 34.046875 L 6.75 34.097656 Z M 5.117188 30.78125 L 4.953125 30.484375 L 5.40625 30.230469 L 6 31.300781 L 5.542969 31.550781 L 5.382813 31.257813 L 3.660156 32.214844 L 3.824219 32.503906 L 3.375 32.753906 L 2.957031 32 L 4.074219 29.90625 L 2.78125 30.621094 L 2.945313 30.917969 L 2.496094 31.167969 L 1.90625 30.097656 L 2.351563 29.851563 L 2.515625 30.144531 L 4.691406 28.9375 L 4.9375 29.386719 L 3.777344 31.523438 Z M 3.683594 27.757813 L 3.5625 27.445313 L 4.050781 27.257813 L 4.488281 28.398438 L 4 28.585938 L 3.882813 28.273438 L 2.042969 28.976563 L 2.164063 29.289063 L 1.6875 29.472656 L 1.25 28.332031 L 1.726563 28.148438 L 1.847656 28.460938 Z M 3.589844 25.585938 L 3.667969 25.921875 L 1.457031 27.414063 L 1.535156 27.757813 L 1.039063 27.871094 L 0.761719 26.683594 L 1.261719 26.566406 L 1.328125 26.847656 L 2.65625 25.980469 L 1.082031 25.785156 L 1.144531 26.0625 L 0.644531 26.175781 L 0.371094 24.984375 L 0.871094 24.867188 L 0.949219 25.214844 Z M 2.542969 22.640625 L 2.082031 22.699219 L 2.023438 22.230469 L 3.003906 22.109375 L 3.269531 24.265625 L 2.75 24.328125 L 2.710938 24 L 0.757813 24.238281 L 0.796875 24.570313 L 0.289063 24.632813 L 0.0273438 22.472656 L 1.003906 22.355469 L 1.0625 22.824219 L 0.589844 22.878906 L 0.691406 23.691406 L 1.410156 23.601563 L 1.292969 22.660156 L 1.800781 22.597656 L 1.917969 23.539063 L 2.644531 23.449219 Z M 2.539063 20.507813 L 3.058594 20.523438 L 3.019531 21.746094 L 2.496094 21.726563 L 2.507813 21.394531 L 0.542969 21.324219 L 0.53125 21.65625 L 0.0195313 21.640625 L 0.0625 20.414063 L 0.0703125 20.289063 L 0.0859375 20.167969 L 0.109375 20.050781 L 0.140625 19.945313 L 0.179688 19.847656 L 0.226563 19.753906 L 0.28125 19.671875 L 0.347656 19.59375 L 0.417969 19.527344 L 0.496094 19.46875 L 0.582031 19.421875 L 0.671875 19.382813 L 0.769531 19.355469 L 0.871094 19.335938 L 0.980469 19.324219 L 1.097656 19.324219 L 1.1875 19.332031 L 1.273438 19.347656 L 1.359375 19.367188 L 1.441406 19.398438 L 1.515625 19.433594 L 1.589844 19.480469 L 1.65625 19.53125 L 1.71875 19.59375 L 1.777344 19.65625 L 1.828125 19.726563 L 1.871094 19.800781 L 1.90625 19.882813 L 1.933594 19.964844 L 1.953125 20.050781 L 1.960938 20.109375 L 2.570313 19.691406 L 2.582031 19.324219 L 3.101563 19.34375 L 3.078125 20.019531 L 1.867188 20.816406 L 2.527344 20.839844 Z M 1.535156 20.804688 L 1.539063 20.667969 L 1.542969 20.566406 L 1.539063 20.472656 L 1.53125 20.386719 L 1.519531 20.304688 L 1.503906 20.234375 L 1.484375 20.167969 L 1.460938 20.113281 L 1.433594 20.0625 L 1.402344 20.019531 L 1.367188 19.980469 L 1.332031 19.949219 L 1.289063 19.921875 L 1.242188 19.902344 L 1.191406 19.886719 L 1.136719 19.875 L 1.074219 19.867188 L 1.011719 19.871094 L 0.957031 19.875 L 0.90625 19.886719 L 0.859375 19.902344 L 0.816406 19.921875 L 0.78125 19.945313 L 0.746094 19.972656 L 0.714844 20.007813 L 0.691406 20.046875 L 0.664063 20.09375 L 0.644531 20.148438 L 0.625 20.210938 L 0.609375 20.28125 L 0.597656 20.355469 L 0.585938 20.441406 L 0.582031 20.535156 L 0.574219 20.773438 Z M 1.035156 17.375 L 1.003906 17.390625 L 0.976563 17.40625 L 0.929688 17.445313 L 0.890625 17.492188 L 0.875 17.519531 L 0.863281 17.546875 L 0.839844 17.609375 L 0.832031 17.644531 L 0.824219 17.722656 L 0.828125 17.757813 L 0.832031 17.789063 L 0.839844 17.824219 L 0.847656 17.855469 L 0.894531 17.9375 L 0.917969 17.960938 L 0.941406 17.980469 L 0.964844 17.996094 L 0.992188 18.011719 L 1.019531 18.023438 L 1.054688 18.035156 L 1.089844 18.042969 L 1.125 18.046875 L 1.15625 18.050781 L 1.1875 18.046875 L 1.214844 18.042969 L 1.238281 18.039063 L 1.265625 18.03125 L 1.285156 18.019531 L 1.308594 18.003906 L 1.351563 17.960938 L 1.378906 17.929688 L 1.402344 17.894531 L 1.429688 17.851563 L 1.457031 17.800781 L 1.523438 17.667969 L 1.53125 17.644531 L 1.539063 17.632813 L 1.542969 17.617188 L 1.558594 17.585938 L 1.601563 17.496094 L 1.644531 17.410156 L 1.6875 17.332031 L 1.730469 17.257813 L 1.777344 17.195313 L 1.824219 17.136719 L 1.875 17.082031 L 1.925781 17.039063 L 1.960938 17.007813 L 2.039063 16.960938 L 2.082031 16.9375 L 2.121094 16.917969 L 2.207031 16.886719 L 2.25 16.878906 L 2.296875 16.867188 L 2.339844 16.863281 L 2.386719 16.855469 L 2.484375 16.855469 L 2.535156 16.859375 L 2.636719 16.875 L 2.683594 16.882813 L 2.734375 16.894531 L 2.78125 16.910156 L 2.828125 16.929688 L 2.871094 16.949219 L 2.917969 16.96875 L 2.960938 16.992188 L 3 17.019531 L 3.042969 17.050781 L 3.078125 17.082031 L 3.117188 17.113281 L 3.148438 17.148438 L 3.183594 17.183594 L 3.210938 17.222656 L 3.242188 17.261719 L 3.265625 17.304688 L 3.3125 17.382813 L 3.328125 17.425781 L 3.347656 17.46875 L 3.363281 17.507813 L 3.375 17.550781 L 3.386719 17.597656 L 3.402344 17.683594 L 3.410156 17.730469 L 3.414063 17.773438 L 3.414063 17.863281 L 3.40625 17.949219 L 3.402344 17.996094 L 3.390625 18.039063 L 3.382813 18.082031 L 3.371094 18.121094 L 3.355469 18.164063 L 3.324219 18.242188 L 3.304688 18.28125 L 3.28125 18.316406 L 3.261719 18.355469 L 3.238281 18.390625 L 3.183594 18.460938 L 3.152344 18.492188 L 3.25 18.511719 L 3.164063 19.011719 L 2.195313 18.839844 L 2.289063 18.296875 L 2.402344 18.304688 L 2.449219 18.300781 L 2.492188 18.296875 L 2.535156 18.289063 L 2.574219 18.277344 L 2.609375 18.261719 L 2.644531 18.242188 L 2.679688 18.21875 L 2.710938 18.191406 L 2.738281 18.160156 L 2.761719 18.128906 L 2.785156 18.09375 L 2.804688 18.054688 L 2.820313 18.015625 L 2.835938 17.96875 L 2.851563 17.875 L 2.851563 17.785156 L 2.84375 17.742188 L 2.835938 17.703125 L 2.820313 17.664063 L 2.804688 17.628906 L 2.757813 17.558594 L 2.730469 17.527344 L 2.703125 17.503906 L 2.671875 17.480469 L 2.636719 17.460938 L 2.601563 17.445313 L 2.5625 17.429688 L 2.519531 17.421875 L 2.480469 17.417969 L 2.445313 17.414063 L 2.382813 17.421875 L 2.355469 17.429688 L 2.300781 17.453125 L 2.253906 17.492188 L 2.226563 17.523438 L 2.199219 17.558594 L 2.167969 17.601563 L 2.136719 17.652344 L 2.105469 17.710938 L 2.074219 17.777344 L 2.035156 17.855469 L 2.03125 17.867188 L 2.023438 17.878906 L 2.015625 17.902344 L 2 17.933594 L 1.992188 17.953125 L 1.953125 18.039063 L 1.914063 18.121094 L 1.871094 18.195313 L 1.828125 18.261719 L 1.78125 18.324219 L 1.734375 18.378906 L 1.6875 18.425781 L 1.636719 18.464844 L 1.601563 18.488281 L 1.570313 18.507813 L 1.535156 18.527344 L 1.496094 18.542969 L 1.460938 18.558594 L 1.382813 18.582031 L 1.34375 18.589844 L 1.308594 18.597656 L 1.265625 18.601563 L 1.226563 18.605469 L 1.144531 18.605469 L 1.105469 18.601563 L 1.019531 18.59375 L 0.933594 18.574219 L 0.851563 18.546875 L 0.773438 18.511719 L 0.699219 18.472656 L 0.628906 18.421875 L 0.566406 18.367188 L 0.507813 18.304688 L 0.453125 18.234375 L 0.40625 18.160156 L 0.367188 18.082031 L 0.339844 18.003906 L 0.316406 17.921875 L 0.300781 17.839844 L 0.296875 17.753906 L 0.300781 17.667969 L 0.3125 17.582031 L 0.320313 17.542969 L 0.328125 17.507813 L 0.339844 17.46875 L 0.363281 17.398438 L 0.378906 17.367188 L 0.394531 17.332031 L 0.414063 17.296875 L 0.433594 17.265625 L 0.503906 17.171875 L 0.53125 17.140625 L 0.449219 17.125 L 0.535156 16.636719 L 1.371094 16.785156 L 1.28125 17.304688 L 1.1875 17.324219 L 1.144531 17.332031 L 1.105469 17.34375 L 1.066406 17.359375 Z M 3.386719 15.726563 L 3.484375 15.40625 L 3.980469 15.558594 L 3.625 16.726563 L 3.125 16.574219 L 3.222656 16.253906 L 1.34375 15.679688 L 1.246094 16 L 0.757813 15.851563 L 1.113281 14.683594 L 1.601563 14.832031 L 1.503906 15.152344 Z M 3.90625 14.183594 L 4.089844 13.792969 L 4.132813 13.6875 L 4.164063 13.589844 L 4.1875 13.492188 L 4.199219 13.398438 L 4.203125 13.304688 L 4.195313 13.214844 L 4.179688 13.125 L 4.152344 13.039063 L 4.117188 12.957031 L 4.074219 12.878906 L 4.019531 12.804688 L 3.960938 12.738281 L 3.890625 12.671875 L 3.808594 12.613281 L 3.722656 12.558594 L 3.621094 12.507813 L 3.515625 12.464844 L 3.410156 12.429688 L 3.308594 12.40625 L 3.210938 12.394531 L 3.113281 12.394531 L 3.019531 12.402344 L 2.925781 12.425781 L 2.835938 12.453125 L 2.746094 12.496094 L 2.664063 12.546875 L 2.585938 12.609375 L 2.511719 12.679688 L 2.441406 12.761719 L 2.375 12.855469 L 2.3125 12.957031 L 2.253906 13.074219 L 2.121094 13.351563 Z M 3.675781 14.675781 L 1.894531 13.84375 L 1.75 14.148438 L 1.289063 13.933594 L 1.847656 12.726563 L 1.882813 12.664063 L 1.914063 12.597656 L 1.984375 12.480469 L 2.023438 12.425781 L 2.101563 12.324219 L 2.1875 12.230469 L 2.234375 12.191406 L 2.28125 12.148438 L 2.332031 12.113281 L 2.386719 12.078125 L 2.4375 12.042969 L 2.554688 11.980469 L 2.628906 11.949219 L 2.703125 11.921875 L 2.859375 11.875 L 2.9375 11.863281 L 3.019531 11.851563 L 3.101563 11.84375 L 3.1875 11.84375 L 3.269531 11.847656 L 3.351563 11.855469 L 3.433594 11.867188 L 3.515625 11.882813 L 3.679688 11.929688 L 3.761719 11.960938 L 3.839844 11.996094 L 3.925781 12.039063 L 4.007813 12.085938 L 4.085938 12.132813 L 4.160156 12.1875 L 4.234375 12.246094 L 4.300781 12.304688 L 4.359375 12.367188 L 4.417969 12.4375 L 4.472656 12.503906 L 4.566406 12.652344 L 4.601563 12.730469 L 4.636719 12.8125 L 4.664063 12.894531 L 4.6875 12.980469 L 4.707031 13.066406 L 4.71875 13.125 L 4.726563 13.183594 L 4.730469 13.246094 L 4.734375 13.300781 L 4.734375 13.359375 L 4.726563 13.476563 L 4.71875 13.53125 L 4.707031 13.589844 L 4.691406 13.652344 L 4.671875 13.71875 L 4.648438 13.785156 L 4.621094 13.859375 L 4.558594 14.015625 L 4.519531 14.101563 L 4.007813 15.199219 L 3.535156 14.980469 Z M 5.003906 10.378906 L 4.152344 10.171875 L 4.660156 10.886719 Z M 4.996094 11.359375 L 5.1875 11.632813 L 5.34375 11.398438 L 5.777344 11.691406 L 5.09375 12.703125 L 4.664063 12.410156 L 4.863281 12.117188 L 3.664063 10.375 L 3.496094 10.625 L 3.070313 10.339844 L 3.625 9.515625 L 6.21875 10.101563 L 6.421875 9.804688 L 6.851563 10.097656 L 6.167969 11.113281 L 5.738281 10.820313 L 5.886719 10.59375 L 5.566406 10.515625 Z M 7.066406 9.011719 L 7.367188 8.699219 L 7.441406 8.617188 L 7.507813 8.53125 L 7.558594 8.449219 L 7.601563 8.363281 L 7.632813 8.277344 L 7.65625 8.1875 L 7.667969 8.101563 L 7.671875 8.011719 L 7.667969 7.921875 L 7.652344 7.832031 L 7.625 7.746094 L 7.589844 7.660156 L 7.542969 7.578125 L 7.488281 7.496094 L 7.421875 7.414063 L 7.34375 7.335938 L 7.257813 7.257813 L 7.171875 7.191406 L 7.082031 7.136719 L 6.992188 7.09375 L 6.898438 7.0625 L 6.808594 7.039063 L 6.714844 7.027344 L 6.617188 7.027344 L 6.519531 7.039063 L 6.425781 7.058594 L 6.332031 7.09375 L 6.238281 7.136719 L 6.144531 7.191406 L 6.050781 7.257813 L 5.957031 7.332031 L 5.867188 7.421875 L 5.652344 7.644531 Z M 6.6875 9.402344 L 5.273438 8.035156 L 5.042969 8.277344 L 4.671875 7.921875 L 5.597656 6.964844 L 5.699219 6.863281 L 5.753906 6.820313 L 5.804688 6.777344 L 5.859375 6.734375 L 5.96875 6.664063 L 6.023438 6.632813 L 6.078125 6.605469 L 6.195313 6.558594 L 6.253906 6.539063 L 6.316406 6.523438 L 6.375 6.507813 L 6.441406 6.496094 L 6.503906 6.488281 L 6.585938 6.480469 L 6.746094 6.480469 L 6.828125 6.488281 L 6.910156 6.5 L 6.988281 6.515625 L 7.070313 6.539063 L 7.148438 6.5625 L 7.226563 6.59375 L 7.300781 6.628906 L 7.375 6.667969 L 7.449219 6.710938 L 7.519531 6.757813 L 7.585938 6.808594 L 7.652344 6.863281 L 7.714844 6.917969 L 7.785156 6.988281 L 7.847656 7.058594 L 7.90625 7.132813 L 7.957031 7.207031 L 8.007813 7.285156 L 8.050781 7.363281 L 8.089844 7.441406 L 8.121094 7.523438 L 8.148438 7.609375 L 8.171875 7.691406 L 8.1875 7.777344 L 8.199219 7.863281 L 8.203125 7.953125 L 8.203125 8.039063 L 8.199219 8.128906 L 8.1875 8.214844 L 8.179688 8.273438 L 8.167969 8.332031 L 8.152344 8.390625 L 8.136719 8.445313 L 8.117188 8.5 L 8.09375 8.554688 L 8.046875 8.65625 L 8.015625 8.710938 L 7.984375 8.761719 L 7.945313 8.820313 L 7.851563 8.9375 L 7.796875 9 L 7.738281 9.066406 L 7.675781 9.132813 L 6.832031 10.003906 L 6.457031 9.644531 Z M 10.191406 6.167969 L 10.46875 5.972656 L 10.769531 6.402344 L 9.769531 7.101563 L 9.46875 6.675781 L 9.742188 6.480469 L 8.617188 4.871094 L 8.339844 5.0625 L 8.046875 4.644531 L 8.753906 4.148438 L 10.953125 5.039063 L 10.105469 3.828125 L 9.828125 4.023438 L 9.535156 3.601563 L 10.535156 2.902344 L 10.828125 3.320313 L 10.554688 3.511719 L 11.980469 5.550781 L 11.5625 5.84375 L 9.3125 4.914063 Z M 13.394531 3.3125 L 12.78125 2.6875 L 12.835938 3.5625 Z M 12.871094 4.136719 L 12.886719 4.472656 L 13.144531 4.359375 L 13.355469 4.832031 L 12.238281 5.332031 L 12.027344 4.855469 L 12.351563 4.710938 L 12.261719 2.597656 L 11.984375 2.71875 L 11.777344 2.253906 L 12.683594 1.847656 L 14.570313 3.722656 L 14.902344 3.574219 L 15.113281 4.050781 L 13.992188 4.550781 L 13.78125 4.074219 L 14.03125 3.964844 L 13.796875 3.722656 Z M 17.523438 2.785156 L 17.488281 2.882813 L 17.445313 2.976563 L 17.394531 3.066406 L 17.34375 3.148438 L 17.285156 3.230469 L 17.21875 3.304688 L 17.148438 3.371094 L 17.074219 3.4375 L 16.996094 3.496094 L 16.910156 3.546875 L 16.820313 3.597656 L 16.726563 3.640625 L 16.625 3.679688 L 16.519531 3.710938 L 16.441406 3.734375 L 16.359375 3.75 L 16.28125 3.761719 L 16.199219 3.769531 L 16.121094 3.773438 L 16.042969 3.773438 L 15.964844 3.769531 L 15.808594 3.746094 L 15.730469 3.726563 L 15.582031 3.679688 L 15.507813 3.648438 L 15.433594 3.613281 L 15.359375 3.574219 L 15.289063 3.53125 L 15.230469 3.492188 L 15.171875 3.449219 L 15.117188 3.40625 L 15.066406 3.359375 L 14.964844 3.257813 L 14.921875 3.203125 L 14.835938 3.085938 L 14.796875 3.023438 L 14.761719 2.960938 L 14.730469 2.898438 L 14.699219 2.832031 L 14.644531 2.691406 L 14.605469 2.542969 L 14.589844 2.46875 L 14.578125 2.394531 L 14.566406 2.316406 L 14.5625 2.242188 L 14.5625 2.164063 L 14.566406 2.089844 L 14.574219 2.015625 L 14.585938 1.9375 L 14.597656 1.863281 L 14.617188 1.789063 L 14.640625 1.714844 L 14.667969 1.644531 L 14.695313 1.570313 L 14.730469 1.5 L 14.765625 1.425781 L 14.804688 1.363281 L 14.890625 1.238281 L 14.984375 1.128906 L 15.085938 1.027344 L 15.144531 0.980469 L 15.199219 0.9375 L 15.261719 0.898438 L 15.320313 0.859375 L 15.519531 0.765625 L 15.660156 0.71875 L 15.785156 0.6875 L 15.84375 0.675781 L 15.902344 0.667969 L 15.964844 0.660156 L 16.023438 0.65625 L 16.078125 0.652344 L 16.136719 0.652344 L 16.195313 0.65625 L 16.25 0.660156 L 16.304688 0.667969 L 16.363281 0.675781 L 16.417969 0.6875 L 16.460938 0.699219 L 16.417969 0.5625 L 16.882813 0.425781 L 17.121094 1.257813 L 16.628906 1.398438 L 16.554688 1.347656 L 16.511719 1.320313 L 16.464844 1.292969 L 16.421875 1.273438 L 16.375 1.253906 L 16.328125 1.238281 L 16.28125 1.226563 L 16.230469 1.21875 L 16.183594 1.210938 L 16.132813 1.207031 L 16.082031 1.207031 L 15.980469 1.214844 L 15.925781 1.222656 L 15.871094 1.234375 L 15.8125 1.25 L 15.683594 1.296875 L 15.640625 1.316406 L 15.5625 1.363281 L 15.527344 1.390625 L 15.488281 1.417969 L 15.457031 1.445313 L 15.421875 1.476563 L 15.390625 1.511719 L 15.359375 1.542969 L 15.332031 1.582031 L 15.304688 1.617188 L 15.28125 1.65625 L 15.234375 1.742188 L 15.195313 1.835938 L 15.164063 1.929688 L 15.152344 1.980469 L 15.144531 2.027344 L 15.136719 2.078125 L 15.128906 2.179688 L 15.128906 2.226563 L 15.132813 2.277344 L 15.136719 2.324219 L 15.144531 2.371094 L 15.167969 2.464844 L 15.183594 2.515625 L 15.199219 2.5625 L 15.21875 2.613281 L 15.242188 2.65625 L 15.265625 2.703125 L 15.289063 2.746094 L 15.316406 2.789063 L 15.34375 2.828125 L 15.375 2.867188 L 15.40625 2.902344 L 15.476563 2.972656 L 15.511719 3.003906 L 15.589844 3.058594 L 15.628906 3.082031 L 15.671875 3.109375 L 15.714844 3.128906 L 15.761719 3.148438 L 15.808594 3.164063 L 15.851563 3.179688 L 15.898438 3.191406 L 15.949219 3.203125 L 15.996094 3.210938 L 16.042969 3.214844 L 16.09375 3.21875 L 16.140625 3.21875 L 16.234375 3.210938 L 16.277344 3.207031 L 16.324219 3.195313 L 16.367188 3.183594 L 16.421875 3.167969 L 16.523438 3.128906 L 16.570313 3.105469 L 16.613281 3.082031 L 16.65625 3.050781 L 16.699219 3.023438 L 16.738281 2.992188 L 16.808594 2.921875 L 16.839844 2.886719 L 16.871094 2.847656 L 16.898438 2.804688 L 16.921875 2.765625 L 16.945313 2.71875 L 16.976563 2.640625 L 17.613281 2.460938 L 17.554688 2.683594 Z M 18.917969 2.660156 L 19.25 2.617188 L 19.3125 3.136719 L 18.101563 3.285156 L 18.039063 2.765625 L 18.371094 2.726563 L 18.128906 0.773438 L 17.796875 0.8125 L 17.738281 0.304688 L 18.949219 0.15625 L 19.011719 0.664063 L 18.679688 0.707031 Z M 20.113281 1.527344 L 20.117188 1.582031 L 20.125 1.683594 L 20.136719 1.734375 L 20.144531 1.78125 L 20.160156 1.832031 L 20.191406 1.925781 L 20.210938 1.972656 L 20.257813 2.058594 L 20.28125 2.097656 L 20.335938 2.175781 L 20.398438 2.246094 L 20.433594 2.28125 L 20.511719 2.34375 L 20.550781 2.371094 L 20.589844 2.394531 L 20.632813 2.421875 L 20.675781 2.441406 L 20.722656 2.460938 L 20.765625 2.480469 L 20.8125 2.496094 L 20.859375 2.507813 L 20.902344 2.519531 L 20.949219 2.527344 L 21.042969 2.535156 L 21.085938 2.535156 L 21.191406 2.527344 L 21.289063 2.511719 L 21.378906 2.488281 L 21.46875 2.453125 L 21.550781 2.410156 L 21.628906 2.359375 L 21.703125 2.300781 L 21.777344 2.230469 L 21.839844 2.152344 L 21.894531 2.070313 L 21.941406 1.984375 L 21.980469 1.894531 L 22.007813 1.800781 L 22.027344 1.699219 L 22.039063 1.597656 L 22.042969 1.488281 L 22.039063 1.441406 L 22.03125 1.355469 L 22.023438 1.308594 L 22 1.222656 L 21.984375 1.179688 L 21.96875 1.140625 L 21.949219 1.097656 L 21.929688 1.058594 L 21.90625 1.015625 L 21.882813 0.976563 L 21.855469 0.941406 L 21.828125 0.902344 L 21.796875 0.867188 L 21.765625 0.828125 L 21.722656 0.789063 L 21.683594 0.753906 L 21.640625 0.71875 L 21.601563 0.6875 L 21.515625 0.632813 L 21.476563 0.609375 L 21.390625 0.570313 L 21.34375 0.558594 L 21.296875 0.542969 L 21.15625 0.519531 L 21.007813 0.519531 L 20.960938 0.523438 L 20.914063 0.53125 L 20.871094 0.539063 L 20.785156 0.5625 L 20.742188 0.578125 L 20.65625 0.617188 L 20.617188 0.636719 L 20.578125 0.660156 L 20.539063 0.6875 L 20.503906 0.714844 L 20.433594 0.777344 L 20.398438 0.8125 L 20.367188 0.847656 L 20.332031 0.886719 L 20.304688 0.925781 L 20.25 1.011719 L 20.226563 1.054688 L 20.203125 1.101563 L 20.183594 1.148438 L 20.152344 1.242188 L 20.128906 1.335938 L 20.121094 1.386719 L 20.113281 1.480469 Z M 19.550781 1.535156 L 19.550781 1.457031 L 19.554688 1.378906 L 19.5625 1.304688 L 19.574219 1.230469 L 19.589844 1.152344 L 19.609375 1.082031 L 19.632813 1.007813 L 19.65625 0.9375 L 19.6875 0.867188 L 19.722656 0.796875 L 19.757813 0.730469 L 19.800781 0.664063 L 19.84375 0.601563 L 19.890625 0.539063 L 19.941406 0.480469 L 19.996094 0.421875 L 20.105469 0.320313 L 20.164063 0.273438 L 20.222656 0.230469 L 20.28125 0.191406 L 20.34375 0.152344 L 20.410156 0.117188 L 20.472656 0.0898438 L 20.542969 0.0625 L 20.609375 0.0390625 L 20.679688 0.0195313 L 20.820313 -0.0117188 L 20.96875 -0.0273438 L 21.042969 -0.03125 L 21.121094 -0.03125 L 21.199219 -0.0273438 L 21.273438 -0.0195313 L 21.347656 -0.0078125 L 21.421875 0.0078125 L 21.492188 0.0234375 L 21.632813 0.0703125 L 21.699219 0.0976563 L 21.765625 0.128906 L 21.832031 0.164063 L 21.894531 0.203125 L 21.953125 0.246094 L 22.015625 0.289063 L 22.074219 0.335938 L 22.183594 0.445313 L 22.238281 0.503906 L 22.289063 0.5625 L 22.332031 0.621094 L 22.375 0.6875 L 22.414063 0.75 L 22.449219 0.816406 L 22.511719 0.957031 L 22.558594 1.097656 L 22.574219 1.171875 L 22.589844 1.25 L 22.597656 1.324219 L 22.605469 1.402344 L 22.609375 1.480469 L 22.609375 1.558594 L 22.605469 1.636719 L 22.589844 1.785156 L 22.578125 1.859375 L 22.5625 1.929688 L 22.542969 2 L 22.519531 2.070313 L 22.496094 2.136719 L 22.464844 2.199219 L 22.433594 2.265625 L 22.398438 2.328125 L 22.363281 2.386719 L 22.277344 2.503906 L 22.230469 2.558594 L 22.113281 2.675781 L 22.050781 2.730469 L 21.988281 2.78125 L 21.921875 2.828125 L 21.855469 2.871094 L 21.789063 2.910156 L 21.71875 2.945313 L 21.644531 2.976563 L 21.570313 3.003906 L 21.496094 3.027344 L 21.417969 3.046875 L 21.339844 3.0625 L 21.261719 3.070313 L 21.179688 3.078125 L 21.097656 3.082031 L 21.015625 3.082031 L 20.933594 3.078125 L 20.851563 3.070313 L 20.695313 3.039063 L 20.621094 3.019531 L 20.472656 2.964844 L 20.332031 2.894531 L 20.199219 2.808594 L 20.074219 2.707031 L 20.011719 2.648438 L 19.953125 2.585938 L 19.90625 2.535156 L 19.863281 2.480469 L 19.785156 2.363281 L 19.75 2.304688 L 19.714844 2.242188 L 19.683594 2.175781 L 19.65625 2.109375 L 19.632813 2.042969 L 19.59375 1.902344 L 19.578125 1.832031 L 19.566406 1.761719 L 19.550781 1.613281 Z M 23.90625 2.6875 L 24.238281 2.742188 L 24.15625 3.257813 L 22.953125 3.066406 L 23.035156 2.550781 L 23.363281 2.601563 L 23.671875 0.660156 L 23.34375 0.609375 L 23.421875 0.101563 L 24.273438 0.238281 L 25.234375 2.40625 L 25.46875 0.945313 L 25.132813 0.890625 L 25.214844 0.386719 L 26.417969 0.578125 L 26.339844 1.082031 L 26.007813 1.03125 L 25.621094 3.488281 L 25.113281 3.40625 L 24.144531 1.175781 Z M 28.136719 2.875 L 28.101563 2 L 27.554688 2.683594 Z M 27.195313 3.136719 L 26.980469 3.394531 L 27.25 3.484375 L 27.089844 3.980469 L 25.929688 3.601563 L 26.089844 3.105469 L 26.425781 3.214844 L 27.773438 1.585938 L 27.484375 1.492188 L 27.644531 1.003906 L 28.589844 1.3125 L 28.738281 3.96875 L 29.078125 4.078125 L 28.917969 4.574219 L 27.753906 4.195313 L 27.914063 3.699219 L 28.171875 3.785156 L 28.160156 3.453125 Z M 29.96875 4.632813 L 30.695313 5.003906 L 30.90625 4.585938 L 31.328125 4.800781 L 30.878906 5.679688 L 28.9375 4.691406 L 29.175781 4.230469 L 29.472656 4.378906 L 30.367188 2.628906 L 30.066406 2.476563 L 30.300781 2.019531 L 31.386719 2.574219 L 31.15625 3.03125 L 30.863281 2.878906 Z M 32.988281 6.566406 L 33.320313 6.847656 L 33.410156 6.914063 L 33.496094 6.972656 L 33.585938 7.019531 L 33.671875 7.058594 L 33.761719 7.082031 L 33.851563 7.101563 L 33.941406 7.105469 L 34.03125 7.101563 L 34.121094 7.089844 L 34.207031 7.070313 L 34.289063 7.035156 L 34.371094 6.996094 L 34.453125 6.945313 L 34.53125 6.882813 L 34.605469 6.8125 L 34.679688 6.726563 L 34.753906 6.636719 L 34.8125 6.542969 L 34.859375 6.453125 L 34.898438 6.359375 L 34.921875 6.265625 L 34.9375 6.171875 L 34.941406 6.078125 L 34.9375 5.980469 L 34.917969 5.886719 L 34.890625 5.792969 L 34.851563 5.699219 L 34.800781 5.609375 L 34.742188 5.519531 L 34.667969 5.433594 L 34.585938 5.34375 L 34.488281 5.257813 L 34.253906 5.0625 Z M 32.574219 6.21875 L 33.835938 4.710938 L 33.582031 4.496094 L 33.910156 4.105469 L 34.929688 4.957031 L 34.984375 5.007813 L 35.035156 5.054688 L 35.085938 5.105469 L 35.132813 5.15625 L 35.175781 5.207031 L 35.253906 5.308594 L 35.289063 5.359375 L 35.320313 5.414063 L 35.347656 5.46875 L 35.375 5.527344 L 35.398438 5.585938 L 35.417969 5.644531 L 35.4375 5.707031 L 35.453125 5.769531 L 35.464844 5.832031 L 35.480469 5.910156 L 35.488281 5.992188 L 35.492188 6.074219 L 35.488281 6.15625 L 35.484375 6.234375 L 35.472656 6.316406 L 35.457031 6.398438 L 35.4375 6.476563 L 35.410156 6.558594 L 35.382813 6.636719 L 35.351563 6.714844 L 35.3125 6.789063 L 35.269531 6.863281 L 35.226563 6.933594 L 35.175781 7.003906 L 35.121094 7.070313 L 35.058594 7.144531 L 34.992188 7.210938 L 34.921875 7.273438 L 34.851563 7.332031 L 34.777344 7.386719 L 34.703125 7.433594 L 34.625 7.476563 L 34.546875 7.515625 L 34.464844 7.550781 L 34.382813 7.578125 L 34.296875 7.601563 L 34.210938 7.617188 L 34.125 7.628906 L 34.039063 7.636719 L 33.949219 7.636719 L 33.859375 7.632813 L 33.683594 7.609375 L 33.628906 7.59375 L 33.570313 7.582031 L 33.460938 7.542969 L 33.410156 7.519531 L 33.355469 7.496094 L 33.300781 7.464844 L 33.242188 7.429688 L 33.179688 7.390625 L 33.117188 7.34375 L 33.050781 7.296875 L 32.984375 7.242188 L 32.910156 7.183594 L 31.980469 6.402344 L 32.316406 6.003906 Z M 35.820313 9.402344 L 36.167969 9.09375 L 36.484375 9.441406 L 35.75 10.101563 L 34.292969 8.488281 L 34.683594 8.140625 L 34.90625 8.386719 L 36.367188 7.070313 L 36.144531 6.824219 L 36.523438 6.480469 L 37.980469 8.097656 L 37.246094 8.757813 L 36.929688 8.40625 L 37.28125 8.085938 L 36.738281 7.480469 L 36.199219 7.964844 L 36.835938 8.671875 L 36.453125 9.015625 L 35.820313 8.308594 L 35.273438 8.796875 Z M 36.90625 10.839844 L 37.351563 11.523438 L 37.742188 11.269531 L 38 11.664063 L 37.171875 12.203125 L 35.984375 10.375 L 36.421875 10.09375 L 36.601563 10.371094 L 38.253906 9.300781 L 38.070313 9.019531 L 38.5 8.742188 L 39.164063 9.765625 L 38.734375 10.042969 L 38.554688 9.765625 Z M 39.3125 15.71875 L 39.210938 15.691406 L 39.113281 15.660156 L 39.019531 15.621094 L 38.929688 15.578125 L 38.84375 15.527344 L 38.765625 15.472656 L 38.6875 15.410156 L 38.617188 15.339844 L 38.550781 15.269531 L 38.488281 15.191406 L 38.429688 15.105469 L 38.375 15.015625 L 38.328125 14.917969 L 38.285156 14.820313 L 38.253906 14.742188 L 38.230469 14.664063 L 38.191406 14.507813 L 38.179688 14.429688 L 38.175781 14.351563 L 38.171875 14.269531 L 38.171875 14.191406 L 38.175781 14.113281 L 38.1875 14.035156 L 38.21875 13.878906 L 38.242188 13.804688 L 38.269531 13.726563 L 38.300781 13.648438 L 38.335938 13.574219 L 38.40625 13.449219 L 38.441406 13.390625 L 38.484375 13.332031 L 38.527344 13.277344 L 38.574219 13.226563 L 38.675781 13.125 L 38.730469 13.078125 L 38.847656 12.992188 L 38.90625 12.953125 L 38.972656 12.914063 L 39.035156 12.878906 L 39.175781 12.816406 L 39.246094 12.789063 L 39.320313 12.765625 L 39.394531 12.746094 L 39.46875 12.730469 L 39.542969 12.71875 L 39.617188 12.710938 L 39.691406 12.707031 L 39.769531 12.703125 L 39.84375 12.707031 L 39.921875 12.714844 L 39.996094 12.726563 L 40.074219 12.742188 L 40.148438 12.757813 L 40.222656 12.78125 L 40.371094 12.835938 L 40.441406 12.867188 L 40.574219 12.9375 L 40.632813 12.980469 L 40.695313 13.019531 L 40.804688 13.113281 L 40.90625 13.214844 L 40.953125 13.269531 L 40.996094 13.328125 L 41.035156 13.386719 L 41.074219 13.449219 L 41.109375 13.515625 L 41.140625 13.582031 L 41.171875 13.652344 L 41.195313 13.710938 L 41.234375 13.828125 L 41.25 13.886719 L 41.273438 14.003906 L 41.28125 14.058594 L 41.289063 14.175781 L 41.292969 14.230469 L 41.289063 14.289063 L 41.285156 14.34375 L 41.28125 14.402344 L 41.273438 14.441406 L 41.40625 14.386719 L 41.589844 14.835938 L 40.789063 15.160156 L 40.597656 14.683594 L 40.640625 14.605469 L 40.664063 14.558594 L 40.683594 14.511719 L 40.714844 14.417969 L 40.722656 14.367188 L 40.730469 14.320313 L 40.734375 14.269531 L 40.734375 14.171875 L 40.730469 14.121094 L 40.722656 14.070313 L 40.710938 14.019531 L 40.695313 13.964844 L 40.679688 13.914063 L 40.660156 13.859375 L 40.621094 13.773438 L 40.574219 13.695313 L 40.546875 13.65625 L 40.492188 13.585938 L 40.457031 13.554688 L 40.425781 13.523438 L 40.390625 13.492188 L 40.320313 13.4375 L 40.28125 13.414063 L 40.238281 13.390625 L 40.199219 13.371094 L 40.15625 13.351563 L 40.109375 13.332031 L 40.058594 13.316406 L 39.964844 13.292969 L 39.863281 13.277344 L 39.8125 13.273438 L 39.714844 13.273438 L 39.613281 13.28125 L 39.566406 13.289063 L 39.425781 13.324219 L 39.382813 13.34375 L 39.332031 13.363281 L 39.289063 13.386719 L 39.242188 13.410156 L 39.15625 13.464844 L 39.117188 13.492188 L 39.078125 13.523438 L 39.039063 13.558594 L 39.003906 13.59375 L 38.941406 13.664063 L 38.910156 13.703125 L 38.882813 13.742188 L 38.859375 13.78125 L 38.835938 13.824219 L 38.796875 13.910156 L 38.765625 14.003906 L 38.742188 14.097656 L 38.738281 14.148438 L 38.730469 14.195313 L 38.730469 14.246094 L 38.726563 14.292969 L 38.734375 14.386719 L 38.75 14.480469 L 38.761719 14.523438 L 38.777344 14.570313 L 38.792969 14.613281 L 38.839844 14.714844 L 38.863281 14.761719 L 38.894531 14.804688 L 38.921875 14.847656 L 38.953125 14.886719 L 39.058594 14.992188 L 39.097656 15.023438 L 39.140625 15.050781 L 39.179688 15.074219 L 39.222656 15.097656 L 39.316406 15.136719 L 39.394531 15.164063 L 39.644531 15.773438 L 39.417969 15.742188 Z M 40.542969 16.5625 L 40.441406 16.585938 L 40.390625 16.601563 L 40.34375 16.617188 L 40.25 16.65625 L 40.164063 16.703125 L 40.121094 16.730469 L 40.082031 16.757813 L 40.003906 16.820313 L 39.9375 16.886719 L 39.90625 16.921875 L 39.878906 16.957031 L 39.824219 17.042969 L 39.800781 17.082031 L 39.777344 17.128906 L 39.757813 17.171875 L 39.742188 17.21875 L 39.726563 17.261719 L 39.714844 17.308594 L 39.703125 17.359375 L 39.695313 17.40625 L 39.6875 17.5 L 39.6875 17.546875 L 39.691406 17.59375 L 39.695313 17.636719 L 39.699219 17.683594 L 39.722656 17.785156 L 39.753906 17.878906 L 39.792969 17.964844 L 39.839844 18.046875 L 39.894531 18.121094 L 39.957031 18.191406 L 40.03125 18.257813 L 40.109375 18.316406 L 40.195313 18.367188 L 40.285156 18.410156 L 40.378906 18.441406 L 40.472656 18.464844 L 40.570313 18.476563 L 40.671875 18.480469 L 40.777344 18.476563 L 40.882813 18.460938 L 40.929688 18.453125 L 41.015625 18.429688 L 41.054688 18.414063 L 41.097656 18.398438 L 41.175781 18.359375 L 41.214844 18.335938 L 41.253906 18.308594 L 41.292969 18.285156 L 41.363281 18.222656 L 41.394531 18.191406 L 41.429688 18.160156 L 41.460938 18.121094 L 41.492188 18.085938 L 41.554688 17.992188 L 41.582031 17.949219 L 41.628906 17.855469 L 41.644531 17.808594 L 41.664063 17.765625 L 41.6875 17.671875 L 41.695313 17.628906 L 41.699219 17.582031 L 41.703125 17.53125 L 41.703125 17.484375 L 41.695313 17.382813 L 41.6875 17.332031 L 41.679688 17.289063 L 41.667969 17.242188 L 41.636719 17.15625 L 41.621094 17.117188 L 41.601563 17.074219 L 41.554688 16.996094 L 41.527344 16.957031 L 41.5 16.921875 L 41.4375 16.851563 L 41.40625 16.820313 L 41.371094 16.789063 L 41.335938 16.761719 L 41.296875 16.734375 L 41.210938 16.679688 L 41.164063 16.65625 L 41.121094 16.636719 L 41.074219 16.617188 L 41.027344 16.601563 L 40.976563 16.585938 L 40.929688 16.574219 L 40.878906 16.566406 L 40.832031 16.558594 L 40.78125 16.550781 L 40.636719 16.550781 L 40.589844 16.558594 Z M 40.445313 16.007813 L 40.523438 15.996094 L 40.601563 15.988281 L 40.675781 15.984375 L 40.753906 15.984375 L 40.828125 15.988281 L 40.90625 15.996094 L 41.054688 16.019531 L 41.128906 16.039063 L 41.203125 16.0625 L 41.273438 16.089844 L 41.414063 16.152344 L 41.484375 16.191406 L 41.550781 16.230469 L 41.617188 16.273438 L 41.734375 16.367188 L 41.84375 16.46875 L 41.9375 16.578125 L 41.980469 16.636719 L 42.019531 16.695313 L 42.058594 16.757813 L 42.089844 16.820313 L 42.121094 16.886719 L 42.148438 16.953125 L 42.195313 17.09375 L 42.210938 17.164063 L 42.226563 17.238281 L 42.238281 17.316406 L 42.246094 17.390625 L 42.253906 17.46875 L 42.253906 17.542969 L 42.25 17.617188 L 42.234375 17.765625 L 42.203125 17.90625 L 42.183594 17.976563 L 42.15625 18.046875 L 42.128906 18.113281 L 42.097656 18.179688 L 42.0625 18.246094 L 42.023438 18.3125 L 41.984375 18.375 L 41.9375 18.441406 L 41.835938 18.558594 L 41.785156 18.613281 L 41.726563 18.667969 L 41.671875 18.714844 L 41.609375 18.761719 L 41.484375 18.839844 L 41.417969 18.878906 L 41.347656 18.910156 L 41.207031 18.964844 L 41.132813 18.988281 L 40.976563 19.019531 L 40.902344 19.035156 L 40.824219 19.042969 L 40.675781 19.050781 L 40.527344 19.042969 L 40.457031 19.035156 L 40.316406 19.011719 L 40.246094 18.992188 L 40.179688 18.972656 L 40.046875 18.917969 L 39.980469 18.886719 L 39.855469 18.816406 L 39.785156 18.769531 L 39.722656 18.71875 L 39.65625 18.667969 L 39.597656 18.613281 L 39.488281 18.496094 L 39.394531 18.371094 L 39.351563 18.304688 L 39.3125 18.234375 L 39.277344 18.164063 L 39.195313 17.941406 L 39.175781 17.859375 L 39.160156 17.777344 L 39.148438 17.699219 L 39.140625 17.617188 L 39.136719 17.535156 L 39.136719 17.457031 L 39.140625 17.375 L 39.148438 17.296875 L 39.164063 17.222656 L 39.179688 17.144531 L 39.203125 17.066406 L 39.226563 16.992188 L 39.257813 16.921875 L 39.292969 16.847656 L 39.332031 16.777344 L 39.375 16.707031 L 39.417969 16.640625 L 39.46875 16.574219 L 39.5625 16.464844 L 39.613281 16.417969 L 39.664063 16.367188 L 39.71875 16.324219 L 39.777344 16.28125 L 39.894531 16.203125 L 39.960938 16.171875 L 40.023438 16.136719 L 40.089844 16.109375 L 40.160156 16.082031 L 40.226563 16.058594 L 40.300781 16.039063 L 40.371094 16.023438 Z M 40.089844 20.433594 L 40.082031 20.796875 L 39.5625 20.789063 L 39.582031 19.566406 L 40.101563 19.578125 L 40.097656 19.910156 L 42.0625 19.945313 L 42.070313 19.609375 L 42.582031 19.621094 L 42.5625 20.707031 L 40.464844 21.449219 L 42.535156 22.269531 L 42.515625 23.355469 L 42.003906 23.347656 L 42.011719 23.011719 L 40.042969 22.980469 L 40.039063 23.3125 L 39.515625 23.304688 L 39.539063 22.082031 L 40.058594 22.09375 L 40.054688 22.449219 L 41.703125 22.476563 L 39.546875 21.628906 L 39.554688 21.238281 L 41.738281 20.460938 Z M 40.488281 25.40625 L 41.347656 25.230469 L 40.582031 24.796875 Z M 40.082031 24.515625 L 39.792969 24.34375 L 39.746094 24.621094 L 39.234375 24.542969 L 39.421875 23.335938 L 39.9375 23.417969 L 39.882813 23.769531 L 41.703125 24.84375 L 41.75 24.542969 L 42.257813 24.625 L 42.101563 25.605469 L 39.503906 26.167969 L 39.445313 26.523438 L 38.933594 26.441406 L 39.125 25.230469 L 39.636719 25.3125 L 39.59375 25.582031 L 39.921875 25.515625 Z M 39.222656 26.96875 L 41.058594 27.671875 L 41.183594 27.351563 L 41.660156 27.535156 L 41.222656 28.675781 L 40.746094 28.492188 L 40.863281 28.1875 L 40.210938 27.941406 L 39.84375 28.898438 L 40.492188 29.144531 L 40.613281 28.835938 L 41.089844 29.019531 L 40.652344 30.15625 L 40.175781 29.972656 L 40.296875 29.664063 L 38.460938 28.957031 L 38.339844 29.269531 L 37.851563 29.082031 L 38.289063 27.941406 L 38.777344 28.128906 L 38.65625 28.441406 L 39.363281 28.710938 L 39.730469 27.753906 L 39.023438 27.484375 L 38.90625 27.789063 L 38.421875 27.601563 L 38.859375 26.460938 L 39.34375 26.648438 Z M 39.707031 30.84375 L 39.871094 30.546875 L 40.316406 30.792969 L 39.722656 31.867188 L 39.277344 31.617188 L 39.4375 31.328125 L 38.289063 30.691406 L 38.199219 30.644531 L 38.113281 30.601563 L 38.035156 30.570313 L 37.964844 30.542969 L 37.898438 30.527344 L 37.839844 30.515625 L 37.789063 30.507813 L 37.746094 30.511719 L 37.707031 30.519531 L 37.671875 30.53125 L 37.632813 30.550781 L 37.597656 30.578125 L 37.5625 30.609375 L 37.527344 30.648438 L 37.492188 30.699219 L 37.429688 30.808594 L 37.40625 30.867188 L 37.390625 30.917969 L 37.382813 30.964844 L 37.375 31.007813 L 37.378906 31.050781 L 37.386719 31.085938 L 37.398438 31.121094 L 37.414063 31.15625 L 37.441406 31.195313 L 37.476563 31.234375 L 37.523438 31.277344 L 37.574219 31.320313 L 37.636719 31.367188 L 37.710938 31.410156 L 37.789063 31.457031 L 38.996094 32.125 L 39.15625 31.835938 L 39.605469 32.082031 L 39.011719 33.148438 L 38.566406 32.902344 L 38.726563 32.609375 L 37.523438 31.945313 L 37.457031 31.90625 L 37.394531 31.871094 L 37.335938 31.835938 L 37.285156 31.800781 L 37.234375 31.769531 L 37.191406 31.738281 L 37.152344 31.710938 L 37.117188 31.683594 L 37.085938 31.65625 L 37.058594 31.632813 L 37.03125 31.601563 L 37.003906 31.574219 L 36.980469 31.546875 L 36.960938 31.515625 L 36.9375 31.484375 L 36.917969 31.453125 L 36.871094 31.351563 L 36.851563 31.296875 L 36.835938 31.242188 L 36.820313 31.125 L 36.820313 31.003906 L 36.828125 30.945313 L 36.851563 30.820313 L 36.871094 30.757813 L 36.917969 30.632813 L 36.949219 30.570313 L 36.984375 30.503906 L 37.019531 30.441406 L 37.058594 30.378906 L 37.097656 30.324219 L 37.140625 30.269531 L 37.183594 30.21875 L 37.273438 30.128906 L 37.324219 30.089844 L 37.371094 30.058594 L 37.421875 30.027344 L 37.472656 30 L 37.527344 29.976563 L 37.582031 29.957031 L 37.691406 29.933594 L 37.75 29.929688 L 37.863281 29.929688 L 37.902344 29.933594 L 37.941406 29.941406 L 37.980469 29.945313 L 38.019531 29.957031 L 38.058594 29.964844 L 38.097656 29.980469 L 38.144531 29.996094 L 38.246094 30.042969 L 38.304688 30.070313 L 38.367188 30.101563 L 38.433594 30.136719 L 38.503906 30.175781 Z M 35.519531 33.53125 L 35.886719 33.820313 L 35.59375 34.191406 L 34.816406 33.582031 L 36.15625 31.871094 L 36.566406 32.191406 L 36.359375 32.453125 L 37.910156 33.664063 L 38.117188 33.402344 L 38.519531 33.71875 L 37.179688 35.429688 L 36.402344 34.820313 L 36.691406 34.449219 L 37.066406 34.742188 L 37.570313 34.101563 L 37 33.65625 L 36.414063 34.402344 L 36.011719 34.085938 L 36.597656 33.339844 L 36.019531 32.890625 Z M 35.519531 33.53125 "/>
</g>
</g>
</svg>
